<svg version="1.1" id="Layer_1" xmlns="http://www.w3.org/2000/svg" xmlns:xlink="http://www.w3.org/1999/xlink" x="0px" y="0px"
	 width="100%" viewBox="0 0 1024 608" enable-background="new 0 0 1024 608" xml:space="preserve">
<path fill="#000000" opacity="1.000000" stroke="none" 
	d="
M452.871216,239.058838 
	C442.240204,218.982452 433.376282,198.493423 424.522369,178.002960 
	C420.272766,168.168137 424.074036,157.961227 433.779968,153.096786 
	C445.681274,147.132034 457.233490,150.204773 468.467529,155.080185 
	C485.091553,162.294785 499.789337,172.742966 514.236755,183.487137 
	C560.168945,217.645828 602.721741,255.796951 644.872620,294.416290 
	C646.064758,295.508545 647.032532,296.987915 648.983704,297.112152 
	C650.635986,295.242126 649.012878,293.662048 648.401978,292.152222 
	C635.267944,259.691528 617.433838,229.846832 597.482666,201.206787 
	C570.852966,162.979736 540.231995,127.989357 509.511749,93.085030 
	C497.182831,79.076950 484.838745,65.082237 472.514221,51.070282 
	C471.897705,50.369366 470.907715,49.803120 471.299927,48.510815 
	C473.065216,48.025185 473.981873,49.428715 475.044159,50.321251 
	C510.009338,79.699074 544.614380,109.475304 576.640625,142.108276 
	C611.922607,178.058655 643.488953,216.840820 667.798706,261.195007 
	C683.161865,289.225616 695.277527,318.501404 702.463684,349.736328 
	C704.241760,357.464691 702.916626,364.010345 696.280762,368.807251 
	C689.865967,373.444305 681.853455,373.566101 674.796814,368.417328 
	C667.407410,363.025696 660.380005,357.099243 653.488220,351.070648 
	C613.105286,315.745697 572.828613,280.298492 531.856323,245.654449 
	C515.818237,232.093475 499.321411,219.108673 482.259827,206.852310 
	C480.694946,205.728165 479.233185,204.193100 477.122314,204.588974 
	C475.828430,205.992767 476.389069,207.252304 476.932861,208.472580 
	C490.585083,239.108932 505.108582,269.258148 526.015747,295.815552 
	C528.179443,298.564026 530.509094,301.181488 532.691101,303.916168 
	C537.799561,310.318787 537.582458,318.579193 532.216064,323.861816 
	C526.481445,329.506927 519.692688,329.896820 512.994141,323.886139 
	C496.125458,308.749512 477.494202,296.268158 457.309479,286.122406 
	C433.603760,274.206757 408.683563,265.173981 383.840118,255.999512 
	C379.638916,254.448059 378.011749,255.913971 378.464508,260.568909 
	C379.130493,267.416290 381.109924,273.930450 383.789368,280.262878 
	C387.951508,290.099457 392.739380,299.612335 398.131866,308.827911 
	C398.440704,309.355743 398.503448,310.027618 398.671722,310.601654 
	C397.218536,311.526123 396.586639,310.385590 396.074280,309.708771 
	C387.835754,298.825256 379.036774,288.317810 373.270996,275.766327 
	C370.023193,268.696198 368.003662,261.417969 368.722565,253.528564 
	C369.605103,243.843994 374.437134,240.351288 383.884918,242.543060 
	C410.176605,248.642349 436.161041,255.814240 461.708557,264.546722 
	C463.197479,265.055695 464.673218,266.204315 466.954620,265.170898 
	C462.293213,256.536072 457.665405,247.963516 452.871216,239.058838 
z"/>
<path fill="#000000" opacity="1.000000" stroke="none" 
	d="
M163.181183,461.284332 
	C166.012512,448.885223 168.897766,436.910004 171.328857,424.843323 
	C172.237610,420.332703 174.452667,418.785706 178.822662,418.744995 
	C189.403870,418.646454 189.280212,418.963837 190.355118,429.326233 
	C192.448257,449.504852 195.148026,469.621979 197.721420,489.748596 
	C198.628693,496.844391 199.847092,503.902527 201.026642,510.960632 
	C201.749557,515.286255 199.972946,517.292664 195.674866,517.250854 
	C195.341599,517.247620 195.008224,517.248779 194.674973,517.253540 
	C183.801605,517.409058 183.998764,517.385193 182.676147,506.488861 
	C181.461700,496.483734 180.615829,486.396973 178.257050,476.506134 
	C175.959961,476.856842 176.266571,478.532196 175.989670,479.639313 
	C173.366440,490.127411 170.568527,500.583374 168.381134,511.164398 
	C167.173187,517.007629 163.496140,517.309082 158.814774,517.307190 
	C154.237213,517.305359 151.502762,516.201233 150.394989,511.041321 
	C148.230988,500.961761 145.285477,491.048401 142.591141,481.085815 
	C142.136795,479.405853 141.988739,477.476227 139.968216,476.186890 
	C137.837097,480.774445 138.149475,485.678040 137.393173,490.334045 
	C136.193497,497.719604 135.264069,505.156158 134.474854,512.598145 
	C134.119995,515.944336 132.591858,517.280518 129.335083,517.249207 
	C117.301369,517.133667 115.883430,517.988708 117.765327,505.111481 
	C121.614929,478.770142 123.960007,452.255768 126.854004,425.804504 
	C127.524971,419.671936 128.416382,418.894623 134.724640,418.807678 
	C144.408035,418.674164 144.170578,418.737183 146.640366,428.042084 
	C149.928375,440.429688 152.070221,453.105316 156.086945,465.305542 
	C156.697205,467.159149 157.068558,469.125275 158.921799,470.614258 
	C162.137573,468.248138 162.070038,464.707672 163.181183,461.284332 
z"/>
<path fill="#000000" opacity="1.000000" stroke="none" 
	d="
M592.865845,500.096863 
	C595.172180,479.990051 597.424988,460.331573 599.679016,440.673218 
	C600.341980,434.891479 600.986572,429.107483 601.695129,423.331299 
	C601.813110,422.370270 601.912903,421.060486 602.538574,420.564423 
	C606.636353,417.315247 611.469971,418.964905 615.989014,419.007324 
	C619.044678,419.035980 619.716858,421.821716 620.252441,424.368500 
	C623.129639,438.050781 626.340881,451.652283 630.223328,465.088928 
	C630.770203,466.981476 631.046509,469.016754 632.997620,470.282440 
	C635.824158,469.802490 635.783752,467.222809 636.316162,465.334412 
	C640.020081,452.196503 642.679016,438.809082 645.208496,425.413361 
	C646.135559,420.503601 648.326416,418.339325 653.220337,418.789520 
	C654.211426,418.880646 655.218506,418.788544 656.218018,418.798645 
	C662.434631,418.861542 663.394470,419.695465 664.092041,425.853424 
	C665.158447,435.268188 666.116821,444.695618 667.240112,454.103455 
	C669.387878,472.091858 671.634827,490.068146 674.847900,507.906647 
	C676.296082,515.946716 675.183594,517.253601 666.874634,517.246216 
	C658.762024,517.239014 658.659912,517.254883 657.430664,509.384796 
	C656.070557,500.676910 654.937622,491.933746 653.670715,483.211029 
	C653.368225,481.128479 653.338684,478.933441 651.624023,476.873260 
	C649.429565,479.546204 649.130432,482.717072 648.423584,485.618439 
	C646.336670,494.184235 644.316040,502.775818 642.649902,511.430542 
	C641.824219,515.719849 639.647644,517.409424 635.472046,517.236389 
	C631.054077,517.053284 626.403198,518.084351 624.903931,511.707153 
	C622.468201,501.345825 619.508301,491.107330 616.742126,480.824432 
	C616.323242,479.267426 616.178101,477.532684 614.270691,476.293793 
	C612.123596,481.555969 612.289978,487.078705 611.420227,492.369537 
	C610.395874,498.601715 609.752380,504.902924 609.130920,511.192657 
	C608.717590,515.375610 606.948181,517.723511 602.442749,517.216003 
	C601.949524,517.160461 601.444092,517.213440 600.944275,517.215942 
	C591.835754,517.261841 590.510498,515.648071 592.038513,506.475372 
	C592.365845,504.510162 592.558289,502.522522 592.865845,500.096863 
z"/>
<path fill="#000000" opacity="1.000000" stroke="none" 
	d="
M536.463806,440.550049 
	C537.622925,434.921082 538.784485,429.721893 539.699219,424.479614 
	C540.382202,420.565948 542.363586,418.505432 546.455261,418.775024 
	C546.952881,418.807861 547.454895,418.776093 547.954834,418.772064 
	C557.704346,418.693848 557.359863,418.730377 558.401306,428.535675 
	C560.772278,450.857849 563.404053,473.154510 566.817505,495.348999 
	C567.652039,500.774658 568.487122,506.200897 569.239929,511.638184 
	C569.762817,515.414551 568.049500,517.076660 564.206116,517.290833 
	C552.643921,517.935120 552.081848,517.441223 550.794556,505.693420 
	C549.907227,497.595245 548.714600,489.530609 547.670471,481.449432 
	C547.518555,480.273346 547.338074,479.148926 545.978638,478.643646 
	C543.677979,479.611084 543.724731,481.823059 543.275818,483.642609 
	C541.003113,492.854431 538.490051,502.026794 536.740417,511.340607 
	C535.647156,517.160278 531.905151,517.095764 527.554016,517.291138 
	C523.024841,517.494568 519.967834,516.553162 518.819092,511.413208 
	C516.641663,501.670593 513.999817,492.029022 511.400818,482.385956 
	C510.971161,480.791748 511.201385,478.588806 508.483856,477.721466 
	C505.970795,482.709900 506.360809,488.267731 505.441376,493.489380 
	C504.375763,499.541260 503.857758,505.693970 503.222260,511.815430 
	C502.855438,515.348694 501.304321,517.098267 497.515045,517.265503 
	C485.595734,517.791321 485.077240,517.086731 486.489014,505.226715 
	C489.674377,478.467346 492.691193,451.686646 495.526031,424.888092 
	C495.996735,420.438507 497.742645,418.547821 502.067291,418.742645 
	C503.730194,418.817596 505.404388,418.820648 507.065491,418.722076 
	C511.479431,418.460205 513.519592,420.323059 514.426086,424.858429 
	C517.230591,438.890289 520.537598,452.823212 524.675415,466.536346 
	C525.138062,468.069580 525.494385,469.791809 527.857422,471.353210 
	C532.543274,461.556976 533.723450,451.032074 536.463806,440.550049 
z"/>
<path fill="#000000" opacity="1.000000" stroke="none" 
	d="
M790.140991,419.447205 
	C814.308960,424.715363 816.446899,454.690338 804.735168,467.175354 
	C796.771545,475.664734 796.962585,475.835724 802.316162,486.418365 
	C806.372070,494.435913 810.554260,502.394104 814.404419,510.509583 
	C816.704041,515.356689 815.299561,516.723877 809.886169,517.364014 
	C800.985291,518.416565 795.061523,516.017700 792.334717,506.583435 
	C790.553467,500.420685 787.095154,494.733765 784.290588,488.880402 
	C783.303650,486.820648 782.495911,484.578522 780.283813,483.000366 
	C778.647705,484.424469 779.135864,486.317474 779.120544,487.983734 
	C779.050232,495.643341 779.011475,503.304169 779.072266,510.963684 
	C779.106934,515.332825 777.194336,517.497986 772.727722,517.244019 
	C771.400513,517.168518 770.063660,517.282898 768.732056,517.260071 
	C762.956787,517.161133 761.771790,516.020508 761.765991,510.116913 
	C761.738953,482.473206 761.736572,454.829376 761.776123,427.185699 
	C761.786438,419.988800 763.139465,418.611176 770.275513,418.855591 
	C776.757324,419.077637 783.264893,418.281250 790.140991,419.447205 
M779.120239,448.529205 
	C779.162476,452.180084 779.259521,455.831390 779.232056,459.481750 
	C779.203003,463.352814 781.166931,464.506042 784.671631,463.635834 
	C789.232483,462.503418 793.363770,457.021057 793.738647,451.674194 
	C794.291260,443.791779 792.203186,439.513428 786.706787,437.266357 
	C781.371338,435.085083 779.293884,436.397064 779.146667,442.072327 
	C779.099365,443.896881 779.128540,445.723450 779.120239,448.529205 
z"/>
<path fill="#000000" opacity="1.000000" stroke="none" 
	d="
M274.655273,423.170166 
	C288.246216,430.402100 293.499115,442.434570 295.136658,456.463043 
	C296.359009,466.934814 295.727142,477.374573 293.216583,487.679718 
	C289.236267,504.017761 277.931030,514.718445 262.616302,516.470276 
	C245.623886,518.414001 230.705139,507.280609 225.936478,489.321503 
	C222.087738,474.826874 222.263062,460.410645 225.766266,445.878418 
	C230.745102,425.224945 255.296783,411.811829 274.655273,423.170166 
M268.779938,437.630615 
	C259.485748,431.516632 249.281387,434.222260 244.380981,444.711792 
	C237.645767,459.128754 237.751648,474.020752 243.249298,488.784546 
	C245.878662,495.845642 251.137375,500.587372 258.997131,500.541626 
	C267.082245,500.494568 272.674713,496.147675 275.654877,488.523895 
	C279.720551,478.123077 279.536774,467.419220 278.100189,456.609039 
	C277.156097,449.504822 274.806030,443.066071 268.779938,437.630615 
z"/>
<path fill="#000000" opacity="1.000000" stroke="none" 
	d="
M447.154602,510.274109 
	C426.222809,523.447937 402.960907,515.345764 395.495972,492.164062 
	C389.713440,474.207001 389.114410,455.943359 397.217926,438.552094 
	C403.298065,425.503265 414.793976,418.615723 429.009308,419.054138 
	C442.601257,419.473358 452.894531,426.919403 458.808624,439.379669 
	C464.085327,450.497070 464.987091,462.428467 463.860962,474.525879 
	C463.337555,480.148315 462.518188,485.744507 460.721436,491.156921 
	C458.183105,498.803345 453.940674,505.213043 447.154602,510.274109 
M410.678680,486.690582 
	C411.069366,487.609894 411.413788,488.552185 411.858154,489.444794 
	C415.223419,496.205109 420.304810,500.891205 428.189484,500.558228 
	C436.101013,500.224152 441.424805,495.725464 444.225830,488.293091 
	C447.525879,479.536804 448.335724,470.538849 447.167542,461.277008 
	C446.264252,454.115753 445.181824,447.035583 440.543091,441.158417 
	C432.858673,431.422394 420.424500,432.167847 413.848511,442.718170 
	C411.805756,445.995483 410.298462,449.545013 409.580688,453.330292 
	C407.510345,464.248871 407.265228,475.148163 410.678680,486.690582 
z"/>
<path fill="#000000" opacity="1.000000" stroke="none" 
	d="
M911.746094,427.209503 
	C912.145569,419.855957 913.102478,418.806030 919.665771,418.747986 
	C929.158020,418.664093 938.653076,418.812012 948.143616,418.656342 
	C952.599609,418.583221 954.363098,420.357574 954.395935,424.876953 
	C954.482605,436.797668 953.906311,437.473450 942.136780,436.426300 
	C930.506409,435.391541 930.231323,435.826355 930.118164,448.709167 
	C930.079224,453.145111 931.327148,455.230133 936.060181,454.846283 
	C939.866394,454.537598 943.716064,454.760498 947.546448,454.755707 
	C951.440735,454.750824 953.398010,456.685791 953.368164,460.596954 
	C953.366882,460.763428 953.367737,460.930115 953.373718,461.096466 
	C953.770081,472.016449 953.449402,472.353699 942.639343,472.384186 
	C930.237732,472.419159 930.179688,472.419373 930.226257,484.899902 
	C930.274292,497.779114 928.629333,496.784180 941.962219,496.640564 
	C955.245117,496.497498 954.559387,497.117889 954.229004,511.139862 
	C954.163452,513.924255 952.482849,515.337219 949.684631,515.343994 
	C939.373169,515.369019 929.058960,515.537720 918.751221,515.351379 
	C912.949890,515.246521 911.765991,513.916260 911.731873,508.120300 
	C911.630676,490.966980 911.652588,473.812866 911.653564,456.659058 
	C911.654053,446.999573 911.708008,437.340088 911.746094,427.209503 
z"/>
<path fill="#000000" opacity="1.000000" stroke="none" 
	d="
M716.076294,442.141479 
	C715.183044,456.283905 714.108276,454.670105 727.818542,454.772827 
	C728.151367,454.775299 728.484314,454.766205 728.817200,454.764893 
	C739.083679,454.724365 741.648499,458.079651 739.151978,468.253571 
	C738.448303,471.121277 736.575745,472.356903 733.707703,472.340088 
	C729.546875,472.315704 725.380554,472.456085 721.226562,472.284393 
	C717.705994,472.138855 715.931580,473.414551 715.936646,477.111816 
	C715.942993,481.767792 715.662964,486.423401 715.613037,491.080322 
	C715.572998,494.818481 717.007019,497.007721 721.280151,496.753662 
	C725.591858,496.497314 729.931519,496.720581 734.258911,496.713898 
	C737.937805,496.708221 739.731140,498.728424 740.084839,502.195801 
	C740.236389,503.680939 740.203918,505.188751 740.194092,506.685852 
	C740.144653,514.228760 739.008240,515.380676 731.550537,515.388367 
	C722.564209,515.397644 713.577332,515.317932 704.591675,515.394836 
	C699.752625,515.436279 697.692871,513.184814 697.702454,508.385315 
	C697.757690,480.756042 697.753418,453.126434 697.669434,425.497284 
	C697.655518,420.916534 699.524536,418.701263 704.170898,418.718292 
	C714.323120,418.755524 724.475952,418.718475 734.628113,418.648834 
	C738.369019,418.623199 740.173401,420.391235 740.166382,424.094238 
	C740.164856,424.926300 740.191589,425.758423 740.196655,426.590546 
	C740.252625,435.829895 739.815552,436.277466 730.765442,436.301697 
	C727.769531,436.309723 724.761963,436.503510 721.780640,436.302216 
	C717.777039,436.031891 715.750916,437.538727 716.076294,442.141479 
z"/>
<path fill="#000000" opacity="1.000000" stroke="none" 
	d="
M839.757812,487.934265 
	C836.848816,475.344818 836.774231,463.180420 839.744263,450.990814 
	C844.701355,430.645874 864.145447,416.513000 884.118774,418.653931 
	C888.435059,419.116608 890.446228,421.120361 890.233398,425.415375 
	C890.208740,425.913330 890.232117,426.413727 890.234802,426.912994 
	C890.288391,437.003937 890.288452,437.003937 880.192566,436.281433 
	C868.319580,435.431763 860.122620,441.272919 856.708557,454.137085 
	C853.797363,465.106293 854.039795,476.229401 858.369507,486.940094 
	C862.545105,497.269684 870.690430,501.829346 881.804993,500.473419 
	C885.033997,500.079529 889.676270,498.038483 890.112793,503.462341 
	C890.776550,511.709534 891.102478,515.336609 883.856750,516.582397 
	C868.703613,519.187744 845.697937,511.284607 839.757812,487.934265 
z"/>
<path fill="#000000" opacity="1.000000" stroke="none" 
	d="
M353.781250,516.260803 
	C339.767792,515.341003 329.106384,509.022369 323.461761,496.820801 
	C314.932068,478.382721 314.877930,459.226166 323.583282,440.754974 
	C328.898010,429.478058 338.588379,422.753632 350.718140,419.696625 
	C354.618835,418.713562 356.651825,419.930176 355.858795,424.170319 
	C355.372894,426.768341 354.954132,429.249939 357.920502,430.595825 
	C360.383728,431.713440 362.933533,432.483704 365.564209,430.933624 
	C368.305756,429.318146 368.013733,426.882599 367.443665,424.331635 
	C367.383636,424.063171 367.601044,423.732635 368.611115,423.268585 
	C368.891754,426.796722 369.353607,430.323730 369.375854,433.853485 
	C369.386810,435.594696 367.762482,436.268311 366.114105,436.257568 
	C364.116516,436.244537 362.120300,436.091095 360.122467,436.035370 
	C348.016785,435.697571 340.391418,440.900391 336.854248,452.383789 
	C333.421387,463.528656 333.580536,474.779755 337.527283,485.756378 
	C340.859406,495.023773 347.089752,500.863617 357.632477,500.690338 
	C361.376221,500.628815 364.275726,503.196259 367.887909,503.700775 
	C367.211517,506.047943 365.488861,505.667664 364.114441,505.901459 
	C362.797272,506.125519 361.427307,506.169006 360.694702,507.564606 
	C362.766876,513.876099 362.157074,514.692383 353.781250,516.260803 
z"/>
</svg>